<svg width="59.555" height="34" version="1.1" viewBox="0 0 59.555 34" xml:space="preserve" xmlns="http://www.w3.org/2000/svg">
<g transform="translate(3.6323e-6 -12.778)">
	<path d="m28.801 45.778c-8.094 0-15.954-3.002-22.133-8.454l-3.746-3.305c-1.223-1.08-1.924-2.646-1.922-4.299 1e-3 -1.652 0.706-3.217 1.932-4.294l3.697-3.247c6.168-5.418 14.008-8.402 22.073-8.402 5.993 0 11.897 1.642 17.074 4.748 2.375 1.425 4.631 3.256 6.895 5.598l5.496 5.681-5.237 5.455c-2.645 2.754-5.461 4.948-8.371 6.521-4.839 2.615-10.288 3.998-15.758 3.998z" fill="#fcf6ff"/>
    <path d="m6 29.778c0-1.365-0.687-2.568-1.731-3.29l-1.357 1.192c-1.214 1.066-1.216 3.02-4e-3 4.089l1.419 1.252c1.009-0.726 1.673-1.904 1.673-3.243z" fill="#cf8c6d"/>
    <circle cx="29" cy="29.778" r="16" fill="#406bb9"/>
    <path d="m28.801 46.778c-8.338 0-16.433-3.091-22.794-8.703l-3.746-3.306c-1.439-1.27-2.263-3.11-2.261-5.049s0.83-3.778 2.271-5.045l3.698-3.247c6.351-5.578 14.425-8.65 22.733-8.65 6.175 0 12.256 1.691 17.588 4.891 2.451 1.47 4.773 3.354 7.099 5.76l6.166 6.374-5.904 6.149c-2.716 2.829-5.615 5.086-8.616 6.708-4.986 2.694-10.599 4.118-16.234 4.118zm-0.099-32c-7.822 0-15.427 2.896-21.413 8.153l-3.698 3.247c-1.01 0.887-1.59 2.179-1.591 3.544s0.576 2.658 1.584 3.547l3.746 3.306c5.996 5.29 13.621 8.203 21.471 8.203 5.304 0 10.588-1.341 15.282-3.878 2.819-1.522 5.552-3.653 8.125-6.333l4.569-4.759-4.826-4.989c-2.203-2.278-4.391-4.057-6.69-5.436-5.021-3.013-10.747-4.605-16.559-4.605z" fill="#fbce9d"/>
    <g fill="#82d0e7">
		<path d="m29 20.778c-0.552 0-1 0.447-1 1v1.883c0 0.553 0.448 1 1 1s1-0.447 1-1v-1.883c0-0.553-0.448-1-1-1z"/>
        <path d="m29 34.895c-0.552 0-1 0.447-1 1v1.883c0 0.553 0.448 1 1 1s1-0.447 1-1v-1.883c0-0.553-0.448-1-1-1z"/>
        <path d="m37 28.778h-1.882c-0.552 0-1 0.447-1 1s0.448 1 1 1h1.882c0.552 0 1-0.447 1-1s-0.448-1-1-1z"/>
        <path d="m22.882 30.778c0.552 0 1-0.447 1-1s-0.448-1-1-1h-1.882c-0.552 0-1 0.447-1 1s0.448 1 1 1z"/>
        <path d="m34.033 33.397c-0.391-0.391-1.023-0.391-1.414 0s-0.391 1.023 0 1.414l1.331 1.331c0.195 0.195 0.451 0.293 0.707 0.293s0.512-0.098 0.707-0.293c0.391-0.391 0.391-1.023 0-1.414z"/>
        <path d="m23.967 26.158c0.195 0.195 0.451 0.293 0.707 0.293s0.512-0.098 0.707-0.293c0.391-0.391 0.391-1.023 0-1.414l-1.331-1.331c-0.391-0.391-1.023-0.391-1.414 0s-0.391 1.023 0 1.414z"/>
        <path d="m32.619 26.158c0.195 0.195 0.451 0.293 0.707 0.293s0.512-0.098 0.707-0.293l1.331-1.331c0.391-0.391 0.391-1.023 0-1.414s-1.023-0.391-1.414 0l-1.331 1.331c-0.391 0.391-0.391 1.024 0 1.414z"/>
        <path d="m25.381 33.397c-0.391-0.391-1.023-0.391-1.414 0l-1.331 1.331c-0.391 0.391-0.391 1.023 0 1.414 0.195 0.195 0.451 0.293 0.707 0.293s0.512-0.098 0.707-0.293l1.331-1.331c0.391-0.391 0.391-1.024 0-1.414z"/>
        <path d="m27.043 21.956c-0.201-0.517-0.783-0.77-1.294-0.571-0.515 0.2-0.771 0.779-0.571 1.294l0.68 1.755c0.154 0.396 0.532 0.639 0.933 0.639 0.121 0 0.243-0.021 0.361-0.067 0.515-0.2 0.771-0.779 0.571-1.294z"/>
        <path d="m32.142 35.121c-0.201-0.516-0.783-0.771-1.294-0.571-0.515 0.2-0.771 0.779-0.571 1.294l0.68 1.755c0.154 0.396 0.532 0.639 0.933 0.639 0.121 0 0.243-0.021 0.361-0.067 0.515-0.2 0.771-0.779 0.571-1.294z"/>
        <path d="m33.772 27.929c0.153 0.396 0.532 0.639 0.933 0.639 0.12 0 0.242-0.021 0.361-0.067l1.755-0.68c0.515-0.199 0.771-0.778 0.572-1.294-0.199-0.515-0.777-0.77-1.293-0.571l-1.755 0.68c-0.516 0.198-0.772 0.777-0.573 1.293z"/>
        <path d="m24.228 31.626c-0.199-0.515-0.777-0.77-1.293-0.571l-1.755 0.68c-0.515 0.199-0.771 0.778-0.572 1.294 0.153 0.396 0.532 0.639 0.933 0.639 0.12 0 0.242-0.021 0.361-0.067l1.755-0.68c0.514-0.2 0.77-0.779 0.571-1.295z"/>
        <path d="m36.722 32.094-1.722-0.76c-0.504-0.221-1.096 7e-3 -1.319 0.512s6e-3 1.096 0.511 1.318l1.722 0.76c0.131 0.058 0.269 0.085 0.403 0.085 0.384 0 0.75-0.223 0.916-0.597 0.223-0.505-6e-3 -1.095-0.511-1.318z"/>
        <path d="m21.278 27.461 1.722 0.76c0.131 0.058 0.269 0.085 0.403 0.085 0.384 0 0.75-0.223 0.916-0.597 0.223-0.505-6e-3 -1.096-0.511-1.318l-1.722-0.76c-0.506-0.222-1.096 7e-3 -1.319 0.512s6e-3 1.096 0.511 1.318z"/>
        <path d="m31.067 25.096c0.131 0.058 0.269 0.085 0.404 0.085 0.384 0 0.75-0.222 0.915-0.596l0.761-1.722c0.223-0.505-5e-3 -1.096-0.51-1.319-0.504-0.223-1.096 4e-3 -1.319 0.511l-0.761 1.722c-0.223 0.504 5e-3 1.095 0.51 1.319z"/>
        <path d="m26.933 34.459c-0.505-0.222-1.096 4e-3 -1.319 0.511l-0.761 1.722c-0.223 0.505 5e-3 1.096 0.51 1.319 0.131 0.058 0.269 0.085 0.404 0.085 0.384 0 0.75-0.222 0.915-0.596l0.761-1.722c0.224-0.504-5e-3 -1.095-0.51-1.319z"/>
	</g>
    <circle cx="29" cy="29.778" r="6" fill="#122335"/>
    <g fill="#82d0e7">
		<path d="m29 15.778c-1.472 0-2.921 0.227-4.307 0.673-0.525 0.17-0.814 0.733-0.645 1.259 0.137 0.424 0.529 0.693 0.952 0.693 0.102 0 0.205-0.016 0.307-0.048 1.187-0.383 2.429-0.577 3.692-0.577 0.552 0 1-0.447 1-1s-0.447-1-0.999-1z"/>
        <path d="m21.885 17.784c-0.117 0.013-0.234 0.048-0.346 0.105-0.019 0.01-0.037 0.021-0.055 0.031h-1e-3c-0.45 0.271-0.712 0.885-0.479 1.354 0.131 0.264 0.393 0.431 0.683 0.491 0.101 0.034 0.208 0.051 0.314 0.051 0.185 0 0.371-0.051 0.538-0.157 0.876-0.561 0.446-1.361 0.427-1.396-0.065-0.116-0.387-0.617-1.081-0.479z"/>
        <path d="m18.893 20.084c-2.511 2.618-3.893 6.061-3.893 9.694 0 0.553 0.448 1 1 1s1-0.447 1-1c0-3.114 1.185-6.065 3.336-8.309 0.382-0.398 0.369-1.032-0.029-1.414-0.398-0.381-1.032-0.368-1.414 0.029z"/>
	</g>
    <circle cx="25.5" cy="25.278" r="2.5" fill="#fff"/>
</g>
</svg>
