<?xml version="1.0" encoding="UTF-8" standalone="no"?>
<svg
   xmlns:dc="http://purl.org/dc/elements/1.1/"
   xmlns:cc="http://creativecommons.org/ns#"
   xmlns:rdf="http://www.w3.org/1999/02/22-rdf-syntax-ns#"
   xmlns:svg="http://www.w3.org/2000/svg"
   xmlns="http://www.w3.org/2000/svg"
   xmlns:sodipodi="http://sodipodi.sourceforge.net/DTD/sodipodi-0.dtd"
   xmlns:inkscape="http://www.inkscape.org/namespaces/inkscape"
   version="1.1"
   id="Capa_1"
   x="0px"
   y="0px"
   viewBox="0 0 32 32"
   xml:space="preserve"
   sodipodi:docname="logo-centre.svg"
   width="32"
   height="32"
   inkscape:version="0.92.3 (2405546, 2018-03-11)"><metadata
   id="metadata116"><rdf:RDF><cc:Work
       rdf:about=""><dc:format>image/svg+xml</dc:format><dc:type
         rdf:resource="http://purl.org/dc/dcmitype/StillImage" /><dc:title></dc:title></cc:Work></rdf:RDF></metadata><defs
   id="defs114">
	
    
    
    
    
    
    
    
</defs><sodipodi:namedview
   pagecolor="#ffffff"
   bordercolor="#666666"
   borderopacity="1"
   objecttolerance="10"
   gridtolerance="10"
   guidetolerance="10"
   inkscape:pageopacity="0"
   inkscape:pageshadow="2"
   inkscape:window-width="1920"
   inkscape:window-height="994"
   id="namedview112"
   showgrid="false"
   fit-margin-top="0"
   fit-margin-left="0"
   fit-margin-right="0"
   fit-margin-bottom="0"
   inkscape:zoom="13.080346"
   inkscape:cx="2.8252695"
   inkscape:cy="16.0005"
   inkscape:window-x="3840"
   inkscape:window-y="0"
   inkscape:window-maximized="1"
   inkscape:current-layer="Capa_1" />
<circle
   id="circle59"
   r="16"
   cy="16"
   cx="16"
   style="fill:#406bb9" /><g
   id="g95"
   transform="translate(-13,-13.778)">
		<path
   inkscape:connector-curvature="0"
   id="path63"
   d="m 29,20.778 c -0.552,0 -1,0.447 -1,1 v 1.883 c 0,0.553 0.448,1 1,1 0.552,0 1,-0.447 1,-1 v -1.883 c 0,-0.553 -0.448,-1 -1,-1 z"
   style="fill:#82d0e7" />
        <path
   inkscape:connector-curvature="0"
   id="path65"
   d="m 29,34.895 c -0.552,0 -1,0.447 -1,1 v 1.883 c 0,0.553 0.448,1 1,1 0.552,0 1,-0.447 1,-1 v -1.883 c 0,-0.553 -0.448,-1 -1,-1 z"
   style="fill:#82d0e7" />
        <path
   inkscape:connector-curvature="0"
   id="path67"
   d="m 37,28.778 h -1.882 c -0.552,0 -1,0.447 -1,1 0,0.553 0.448,1 1,1 H 37 c 0.552,0 1,-0.447 1,-1 0,-0.553 -0.448,-1 -1,-1 z"
   style="fill:#82d0e7" />
        <path
   inkscape:connector-curvature="0"
   id="path69"
   d="m 22.882,30.778 c 0.552,0 1,-0.447 1,-1 0,-0.553 -0.448,-1 -1,-1 H 21 c -0.552,0 -1,0.447 -1,1 0,0.553 0.448,1 1,1 z"
   style="fill:#82d0e7" />
        <path
   inkscape:connector-curvature="0"
   id="path71"
   d="m 34.033,33.397 c -0.391,-0.391 -1.023,-0.391 -1.414,0 -0.391,0.391 -0.391,1.023 0,1.414 l 1.331,1.331 c 0.195,0.195 0.451,0.293 0.707,0.293 0.256,0 0.512,-0.098 0.707,-0.293 0.391,-0.391 0.391,-1.023 0,-1.414 z"
   style="fill:#82d0e7" />
        <path
   inkscape:connector-curvature="0"
   id="path73"
   d="m 23.967,26.158 c 0.195,0.195 0.451,0.293 0.707,0.293 0.256,0 0.512,-0.098 0.707,-0.293 0.391,-0.391 0.391,-1.023 0,-1.414 L 24.05,23.413 c -0.391,-0.391 -1.023,-0.391 -1.414,0 -0.391,0.391 -0.391,1.023 0,1.414 z"
   style="fill:#82d0e7" />
        <path
   inkscape:connector-curvature="0"
   id="path75"
   d="m 32.619,26.158 c 0.195,0.195 0.451,0.293 0.707,0.293 0.256,0 0.512,-0.098 0.707,-0.293 l 1.331,-1.331 c 0.391,-0.391 0.391,-1.023 0,-1.414 -0.391,-0.391 -1.023,-0.391 -1.414,0 l -1.331,1.331 c -0.391,0.391 -0.391,1.024 0,1.414 z"
   style="fill:#82d0e7" />
        <path
   inkscape:connector-curvature="0"
   id="path77"
   d="m 25.381,33.397 c -0.391,-0.391 -1.023,-0.391 -1.414,0 l -1.331,1.331 c -0.391,0.391 -0.391,1.023 0,1.414 0.195,0.195 0.451,0.293 0.707,0.293 0.256,0 0.512,-0.098 0.707,-0.293 l 1.331,-1.331 c 0.391,-0.391 0.391,-1.024 0,-1.414 z"
   style="fill:#82d0e7" />
        <path
   inkscape:connector-curvature="0"
   id="path79"
   d="m 27.043,21.956 c -0.201,-0.517 -0.783,-0.77 -1.294,-0.571 -0.515,0.2 -0.771,0.779 -0.571,1.294 l 0.68,1.755 c 0.154,0.396 0.532,0.639 0.933,0.639 0.121,0 0.243,-0.021 0.361,-0.067 0.515,-0.2 0.771,-0.779 0.571,-1.294 z"
   style="fill:#82d0e7" />
        <path
   inkscape:connector-curvature="0"
   id="path81"
   d="m 32.142,35.121 c -0.201,-0.516 -0.783,-0.771 -1.294,-0.571 -0.515,0.2 -0.771,0.779 -0.571,1.294 l 0.68,1.755 c 0.154,0.396 0.532,0.639 0.933,0.639 0.121,0 0.243,-0.021 0.361,-0.067 0.515,-0.2 0.771,-0.779 0.571,-1.294 z"
   style="fill:#82d0e7" />
        <path
   inkscape:connector-curvature="0"
   id="path83"
   d="m 33.772,27.929 c 0.153,0.396 0.532,0.639 0.933,0.639 0.12,0 0.242,-0.021 0.361,-0.067 l 1.755,-0.68 c 0.515,-0.199 0.771,-0.778 0.572,-1.294 -0.199,-0.515 -0.777,-0.77 -1.293,-0.571 l -1.755,0.68 c -0.516,0.198 -0.772,0.777 -0.573,1.293 z"
   style="fill:#82d0e7" />
        <path
   inkscape:connector-curvature="0"
   id="path85"
   d="m 24.228,31.626 c -0.199,-0.515 -0.777,-0.77 -1.293,-0.571 l -1.755,0.68 c -0.515,0.199 -0.771,0.778 -0.572,1.294 0.153,0.396 0.532,0.639 0.933,0.639 0.12,0 0.242,-0.021 0.361,-0.067 l 1.755,-0.68 c 0.514,-0.2 0.77,-0.779 0.571,-1.295 z"
   style="fill:#82d0e7" />
        <path
   inkscape:connector-curvature="0"
   id="path87"
   d="M 36.722,32.094 35,31.334 c -0.504,-0.221 -1.096,0.007 -1.319,0.512 -0.223,0.505 0.006,1.096 0.511,1.318 l 1.722,0.76 c 0.131,0.058 0.269,0.085 0.403,0.085 0.384,0 0.75,-0.223 0.916,-0.597 0.223,-0.505 -0.006,-1.095 -0.511,-1.318 z"
   style="fill:#82d0e7" />
        <path
   inkscape:connector-curvature="0"
   id="path89"
   d="M 21.278,27.461 23,28.221 c 0.131,0.058 0.269,0.085 0.403,0.085 0.384,0 0.75,-0.223 0.916,-0.597 0.223,-0.505 -0.006,-1.096 -0.511,-1.318 l -1.722,-0.76 c -0.506,-0.222 -1.096,0.007 -1.319,0.512 -0.223,0.505 0.006,1.096 0.511,1.318 z"
   style="fill:#82d0e7" />
        <path
   inkscape:connector-curvature="0"
   id="path91"
   d="m 31.067,25.096 c 0.131,0.058 0.269,0.085 0.404,0.085 0.384,0 0.75,-0.222 0.915,-0.596 l 0.761,-1.722 c 0.223,-0.505 -0.005,-1.096 -0.51,-1.319 -0.504,-0.223 -1.096,0.004 -1.319,0.511 l -0.761,1.722 c -0.223,0.504 0.005,1.095 0.51,1.319 z"
   style="fill:#82d0e7" />
        <path
   inkscape:connector-curvature="0"
   id="path93"
   d="m 26.933,34.459 c -0.505,-0.222 -1.096,0.004 -1.319,0.511 l -0.761,1.722 c -0.223,0.505 0.005,1.096 0.51,1.319 0.131,0.058 0.269,0.085 0.404,0.085 0.384,0 0.75,-0.222 0.915,-0.596 l 0.761,-1.722 c 0.224,-0.504 -0.005,-1.095 -0.51,-1.319 z"
   style="fill:#82d0e7" />
	</g><circle
   id="circle97"
   r="6"
   cy="16"
   cx="16"
   style="fill:#122335" /><g
   id="g105"
   transform="translate(-13,-13.778)">
		<path
   inkscape:connector-curvature="0"
   id="path99"
   d="m 29,15.778 c -1.472,0 -2.921,0.227 -4.307,0.673 -0.525,0.17 -0.814,0.733 -0.645,1.259 0.137,0.424 0.529,0.693 0.952,0.693 0.102,0 0.205,-0.016 0.307,-0.048 1.187,-0.383 2.429,-0.577 3.692,-0.577 0.552,0 1,-0.447 1,-1 0,-0.553 -0.447,-1 -0.999,-1 z"
   style="fill:#82d0e7" />
        <path
   inkscape:connector-curvature="0"
   id="path101"
   d="m 21.885,17.784 c -0.117,0.013 -0.234,0.048 -0.346,0.105 -0.019,0.01 -0.037,0.021 -0.055,0.031 h -0.001 c -0.45,0.271 -0.712,0.885 -0.479,1.354 0.131,0.264 0.393,0.431 0.683,0.491 0.101,0.034 0.208,0.051 0.314,0.051 0.185,0 0.371,-0.051 0.538,-0.157 0.876,-0.561 0.446,-1.361 0.427,-1.396 -0.065,-0.116 -0.387,-0.617 -1.081,-0.479 z"
   style="fill:#82d0e7" />
        <path
   inkscape:connector-curvature="0"
   id="path103"
   d="M 18.893,20.084 C 16.382,22.702 15,26.145 15,29.778 c 0,0.553 0.448,1 1,1 0.552,0 1,-0.447 1,-1 0,-3.114 1.185,-6.065 3.336,-8.309 0.382,-0.398 0.369,-1.032 -0.029,-1.414 -0.398,-0.381 -1.032,-0.368 -1.414,0.029 z"
   style="fill:#82d0e7" />
	</g>
</svg>